<svg xmlns:xlink="http://www.w3.org/1999/xlink" width="90" height="60" viewBox="0 0 986 657" fill="none" xmlns="http://www.w3.org/2000/svg"><path d="M873.5 631H847.5V656.5H873.5V631Z" fill="black" data-darkreader-inline-fill="" style="--darkreader-inline-fill:#d8d4cf;"></path><path d="M137.5 246.5H0.5V271H55.5V408H81.5V271H137.5V246.5Z" fill="black" data-darkreader-inline-fill="" style="--darkreader-inline-fill:#d8d4cf;"></path><path d="M134.5 40L110.5 60L110 60.5L109.5 56.5L103.5 42L91.5 32L78.5 26.5H64.5L50.5 32.5L39 43L33 58L30.5 70V98L34 113L40 126.5L50.5 136L64.5 142H79L92 136L103.5 126L109.5 112.5L110 108.5L134.5 128.5L128 141L108.5 157.5L86 166.5H57.5L33 156.5L15 140.5L5 120L1.5 102V67L5.5 47.5L15 28L34 11.5L58 1.5H85.5L109.5 11.5L128.5 28L134.5 40Z" fill="black" data-darkreader-inline-fill="" style="--darkreader-inline-fill:#d8d4cf;"></path><path d="M756 39.5L732 59.5L731.5 60L731 56L725 41.5L713 31.5L700 26H686L672 32L660.5 42.5L654.5 57.5L652 69.5V97.5L655.5 112.5L661.5 126L672 135.5L686 141.5H700.5L713.5 135.5L725 125.5L731 112L731.5 108L756 128L749.5 140.5L730 157L707.5 166H679L654.5 156L636.5 140L626.5 119.5L623 101.5V66.5L627 47L636.5 27.5L655.5 11L679.5 1H707L731 11L750 27.5L756 39.5Z" fill="black" data-darkreader-inline-fill="" style="--darkreader-inline-fill:#d8d4cf;"></path><path d="M134.5 530.5L110.5 550.5L110 551L109.5 547L103.5 532.5L91.5 522.5L78.5 517H64.5L50.5 523L39 533.5L33 548.5L30.5 560.5V588.5L34 603.5L40 617L50.5 626.5L64.5 632.5H79L92 626.5L103.5 616.5L109.5 603L110 599L134.5 619L128 631.5L108.5 648L86 657H57.5L33 647L15 631L5 610.5L1.5 592.5V557.5L5.5 538L15 518.5L34 502L58 492H85.5L109.5 502L128.5 518.5L134.5 530.5Z" fill="black" data-darkreader-inline-fill="" style="--darkreader-inline-fill:#d8d4cf;"></path><path d="M433.5 409V247.5H546.5V272H460V310.5H546.5V335.5H460V384.5H546.5V409H433.5Z" fill="black" stroke="black" data-darkreader-inline-fill="" style="--darkreader-inline-fill:#d8d4cf; --darkreader-inline-stroke:#d8d4cf;" data-darkreader-inline-stroke=""></path><path fill-rule="evenodd" clip-rule="evenodd" d="M488 1H507.5L570 163.5H542.5L527 123H469L454 163.5H426.5L488 1ZM498 43.5L518.5 98.5H477.5L498 43.5Z" fill="black" data-darkreader-inline-fill="" style="--darkreader-inline-fill:#d8d4cf;"></path><path d="M507.5 1L507.967 0.82051L507.843 0.5H507.5V1ZM488 1V0.5H487.655L487.532 0.82302L488 1ZM570 163.5V164H570.728L570.467 163.321L570 163.5ZM542.5 163.5L542.033 163.679L542.156 164H542.5V163.5ZM527 123L527.467 122.821L527.344 122.5H527V123ZM469 123V122.5H468.652L468.531 122.826L469 123ZM454 163.5V164H454.348L454.469 163.674L454 163.5ZM426.5 163.5L426.032 163.323L425.776 164H426.5V163.5ZM518.5 98.5V99H519.22L518.969 98.3254L518.5 98.5ZM498 43.5L498.469 43.3254L498 42.0684L497.531 43.3254L498 43.5ZM477.5 98.5L477.031 98.3254L476.78 99H477.5V98.5ZM507.5 0.5H488V1.5H507.5V0.5ZM570.467 163.321L507.967 0.82051L507.033 1.17949L569.533 163.679L570.467 163.321ZM542.5 164H570V163H542.5V164ZM526.533 123.179L542.033 163.679L542.967 163.321L527.467 122.821L526.533 123.179ZM469 123.5H527V122.5H469V123.5ZM454.469 163.674L469.469 123.174L468.531 122.826L453.531 163.326L454.469 163.674ZM426.5 164H454V163H426.5V164ZM487.532 0.82302L426.032 163.323L426.968 163.677L488.468 1.17698L487.532 0.82302ZM518.969 98.3254L498.469 43.3254L497.531 43.6746L518.031 98.6746L518.969 98.3254ZM477.5 99H518.5V98H477.5V99ZM497.531 43.3254L477.031 98.3254L477.969 98.6746L498.469 43.6746L497.531 43.3254Z" fill="black" data-darkreader-inline-fill="" style="--darkreader-inline-fill:#d8d4cf;"></path><path d="M873.5 1H847V163.5H873.5V112.5L898.5 86.5L954 163.5H984.5L917 69.5L984.5 1H948L873.5 76.5V1Z" fill="black" stroke="black" data-darkreader-inline-fill="" style="--darkreader-inline-fill:#d8d4cf; --darkreader-inline-stroke:#d8d4cf;" data-darkreader-inline-stroke=""></path><path fill-rule="evenodd" clip-rule="evenodd" d="M306 1L326.5 6.5L344 23.5L351.5 48L345.5 70.5L333.5 87L322 93L354 162.5H325L295.5 98H258V162.5H231.5V1H306ZM301 25.5L312.5 29L321 37L324.5 48L321 60L315 68L303.5 73.5H258V25.5H301Z" fill="black" data-darkreader-inline-fill="" style="--darkreader-inline-fill:#d8d4cf;"></path><path d="M326.5 6.5L326.848 6.14136L326.755 6.05077L326.63 6.01708L326.5 6.5ZM306 1L306.13 0.517079L306.066 0.5H306V1ZM344 23.5L344.478 23.3536L344.441 23.2308L344.348 23.1414L344 23.5ZM351.5 48L351.983 48.1288L352.02 47.9905L351.978 47.8536L351.5 48ZM345.5 70.5L345.904 70.7941L345.959 70.7188L345.983 70.6288L345.5 70.5ZM333.5 87L333.731 87.4433L333.835 87.389L333.904 87.2941L333.5 87ZM322 93L321.769 92.5567L321.347 92.7768L321.546 93.2091L322 93ZM354 162.5V163H354.781L354.454 162.291L354 162.5ZM325 162.5L324.545 162.708L324.679 163H325V162.5ZM295.5 98L295.955 97.792L295.821 97.5H295.5V98ZM258 98V97.5H257.5V98H258ZM258 162.5V163H258.5V162.5H258ZM231.5 162.5H231V163H231.5V162.5ZM231.5 1V0.5H231V1H231.5ZM312.5 29L312.843 28.6359L312.757 28.5557L312.646 28.5217L312.5 29ZM301 25.5L301.146 25.0217L301.074 25H301V25.5ZM321 37L321.476 36.8484L321.437 36.7248L321.343 36.6359L321 37ZM324.5 48L324.98 48.14L325.023 47.9937L324.976 47.8484L324.5 48ZM321 60L321.4 60.3L321.455 60.2273L321.48 60.14L321 60ZM315 68L315.216 68.4511L315.326 68.3981L315.4 68.3L315 68ZM303.5 73.5V74H303.613L303.716 73.9511L303.5 73.5ZM258 73.5H257.5V74H258V73.5ZM258 25.5V25H257.5V25.5H258ZM326.63 6.01708L306.13 0.517079L305.87 1.48292L326.37 6.98292L326.63 6.01708ZM344.348 23.1414L326.848 6.14136L326.152 6.85864L343.652 23.8586L344.348 23.1414ZM351.978 47.8536L344.478 23.3536L343.522 23.6464L351.022 48.1464L351.978 47.8536ZM345.983 70.6288L351.983 48.1288L351.017 47.8712L345.017 70.3712L345.983 70.6288ZM333.904 87.2941L345.904 70.7941L345.096 70.2059L333.096 86.7059L333.904 87.2941ZM322.231 93.4433L333.731 87.4433L333.269 86.5567L321.769 92.5567L322.231 93.4433ZM354.454 162.291L322.454 92.7909L321.546 93.2091L353.546 162.709L354.454 162.291ZM325 163H354V162H325V163ZM295.045 98.208L324.545 162.708L325.455 162.292L295.955 97.792L295.045 98.208ZM258 98.5H295.5V97.5H258V98.5ZM258.5 162.5V98H257.5V162.5H258.5ZM231.5 163H258V162H231.5V163ZM231 1V162.5H232V1H231ZM306 0.5H231.5V1.5H306V0.5ZM312.646 28.5217L301.146 25.0217L300.854 25.9783L312.354 29.4783L312.646 28.5217ZM321.343 36.6359L312.843 28.6359L312.157 29.3641L320.657 37.3641L321.343 36.6359ZM324.976 47.8484L321.476 36.8484L320.524 37.1516L324.024 48.1516L324.976 47.8484ZM321.48 60.14L324.98 48.14L324.02 47.86L320.52 59.86L321.48 60.14ZM315.4 68.3L321.4 60.3L320.6 59.7L314.6 67.7L315.4 68.3ZM303.716 73.9511L315.216 68.4511L314.784 67.5489L303.284 73.0489L303.716 73.9511ZM258 74H303.5V73H258V74ZM257.5 25.5V73.5H258.5V25.5H257.5ZM301 25H258V26H301V25Z" fill="black" data-darkreader-inline-fill="" style="--darkreader-inline-fill:#d8d4cf;"></path><path d="M251 247.5H224.5V409H251V335.5H318V409H344.5V247.5H318V310.5H251V247.5Z" fill="black" stroke="black" data-darkreader-inline-fill="" style="--darkreader-inline-fill:#d8d4cf; --darkreader-inline-stroke:#d8d4cf;" data-darkreader-inline-stroke=""></path><path fill-rule="evenodd" clip-rule="evenodd" d="M230.5 518.5L249 502.5L274 492H300.5L325 502.5L343.5 518.5L353.5 538.5L357.5 560V590L353.5 610.5L343.5 631.5L325 647L302.5 656.5H272.5L249 648L230.5 631.5L221 611.5L217 593.5V558L221 538.5L230.5 518.5ZM255 533.5L266 523L280.5 517H294.5L307.5 523L320 533.5L325 545.5L328.5 560V588L325 604L319 616.5L307.5 626.5L294.5 632.5L280 633L267 627.5L255 616.5L249 605L246 588V560L249.5 545L255 533.5Z" fill="black" data-darkreader-inline-fill="" style="--darkreader-inline-fill:#d8d4cf;"></path><path d="M249 502.5L248.806 502.039L248.733 502.07L248.673 502.122L249 502.5ZM230.5 518.5L230.173 518.122L230.093 518.191L230.048 518.285L230.5 518.5ZM274 492V491.5H273.899L273.806 491.539L274 492ZM300.5 492L300.697 491.54L300.603 491.5H300.5V492ZM325 502.5L325.327 502.122L325.268 502.071L325.197 502.04L325 502.5ZM343.5 518.5L343.947 518.276L343.903 518.187L343.827 518.122L343.5 518.5ZM353.5 538.5L353.992 538.409L353.979 538.339L353.947 538.276L353.5 538.5ZM357.5 560H358V559.954L357.992 559.909L357.5 560ZM357.5 590L357.991 590.096L358 590.048V590H357.5ZM353.5 610.5L353.951 610.715L353.979 610.658L353.991 610.596L353.5 610.5ZM343.5 631.5L343.821 631.883L343.905 631.813L343.951 631.715L343.5 631.5ZM325 647L325.194 647.461L325.264 647.431L325.321 647.383L325 647ZM302.5 656.5V657H302.601L302.694 656.961L302.5 656.5ZM272.5 656.5L272.33 656.97L272.412 657H272.5V656.5ZM249 648L248.667 648.373L248.739 648.437L248.83 648.47L249 648ZM230.5 631.5L230.048 631.715L230.092 631.806L230.167 631.873L230.5 631.5ZM221 611.5L220.512 611.608L220.524 611.664L220.548 611.715L221 611.5ZM217 593.5H216.5V593.555L216.512 593.608L217 593.5ZM217 558L216.51 557.9L216.5 557.949V558H217ZM221 538.5L220.548 538.285L220.522 538.34L220.51 538.4L221 538.5ZM266 523L265.809 522.538L265.722 522.574L265.655 522.638L266 523ZM255 533.5L254.655 533.138L254.588 533.202L254.549 533.284L255 533.5ZM280.5 517V516.5H280.401L280.309 516.538L280.5 517ZM294.5 517L294.71 516.546L294.61 516.5H294.5V517ZM307.5 523L307.822 522.617L307.77 522.574L307.71 522.546L307.5 523ZM320 533.5L320.462 533.308L320.415 533.195L320.322 533.117L320 533.5ZM325 545.5L325.486 545.383L325.477 545.344L325.462 545.308L325 545.5ZM328.5 560H329V559.941L328.986 559.883L328.5 560ZM328.5 588L328.988 588.107L329 588.054V588H328.5ZM325 604L325.451 604.216L325.476 604.164L325.488 604.107L325 604ZM319 616.5L319.328 616.877L319.406 616.81L319.451 616.716L319 616.5ZM307.5 626.5L307.71 626.954L307.774 626.924L307.828 626.877L307.5 626.5ZM294.5 632.5L294.517 633L294.618 632.996L294.71 632.954L294.5 632.5ZM280 633L279.805 633.46L279.907 633.504L280.017 633.5L280 633ZM267 627.5L266.662 627.869L266.726 627.927L266.805 627.96L267 627.5ZM255 616.5L254.557 616.731L254.597 616.809L254.662 616.869L255 616.5ZM249 605L248.508 605.087L248.521 605.163L248.557 605.231L249 605ZM246 588H245.5V588.044L245.508 588.087L246 588ZM246 560L245.513 559.886L245.5 559.942V560H246ZM249.5 545L249.049 544.784L249.025 544.833L249.013 544.886L249.5 545ZM248.673 502.122L230.173 518.122L230.827 518.878L249.327 502.878L248.673 502.122ZM273.806 491.539L248.806 502.039L249.194 502.961L274.194 492.461L273.806 491.539ZM300.5 491.5H274V492.5H300.5V491.5ZM325.197 502.04L300.697 491.54L300.303 492.46L324.803 502.96L325.197 502.04ZM343.827 518.122L325.327 502.122L324.673 502.878L343.173 518.878L343.827 518.122ZM353.947 538.276L343.947 518.276L343.053 518.724L353.053 538.724L353.947 538.276ZM357.992 559.909L353.992 538.409L353.008 538.591L357.008 560.091L357.992 559.909ZM358 590V560H357V590H358ZM353.991 610.596L357.991 590.096L357.009 589.904L353.009 610.404L353.991 610.596ZM343.951 631.715L353.951 610.715L353.049 610.285L343.049 631.285L343.951 631.715ZM325.321 647.383L343.821 631.883L343.179 631.117L324.679 646.617L325.321 647.383ZM302.694 656.961L325.194 647.461L324.806 646.539L302.306 656.039L302.694 656.961ZM272.5 657H302.5V656H272.5V657ZM248.83 648.47L272.33 656.97L272.67 656.03L249.17 647.53L248.83 648.47ZM230.167 631.873L248.667 648.373L249.333 647.627L230.833 631.127L230.167 631.873ZM220.548 611.715L230.048 631.715L230.952 631.285L221.452 611.285L220.548 611.715ZM216.512 593.608L220.512 611.608L221.488 611.392L217.488 593.392L216.512 593.608ZM216.5 558V593.5H217.5V558H216.5ZM220.51 538.4L216.51 557.9L217.49 558.1L221.49 538.6L220.51 538.4ZM230.048 518.285L220.548 538.285L221.452 538.715L230.952 518.715L230.048 518.285ZM265.655 522.638L254.655 533.138L255.345 533.862L266.345 523.362L265.655 522.638ZM280.309 516.538L265.809 522.538L266.191 523.462L280.691 517.462L280.309 516.538ZM294.5 516.5H280.5V517.5H294.5V516.5ZM307.71 522.546L294.71 516.546L294.29 517.454L307.29 523.454L307.71 522.546ZM320.322 533.117L307.822 522.617L307.178 523.383L319.678 533.883L320.322 533.117ZM325.462 545.308L320.462 533.308L319.538 533.692L324.538 545.692L325.462 545.308ZM328.986 559.883L325.486 545.383L324.514 545.617L328.014 560.117L328.986 559.883ZM329 588V560H328V588H329ZM325.488 604.107L328.988 588.107L328.012 587.893L324.512 603.893L325.488 604.107ZM319.451 616.716L325.451 604.216L324.549 603.784L318.549 616.284L319.451 616.716ZM307.828 626.877L319.328 616.877L318.672 616.123L307.172 626.123L307.828 626.877ZM294.71 632.954L307.71 626.954L307.29 626.046L294.29 632.046L294.71 632.954ZM280.017 633.5L294.517 633L294.483 632L279.983 632.5L280.017 633.5ZM266.805 627.96L279.805 633.46L280.195 632.54L267.195 627.04L266.805 627.96ZM254.662 616.869L266.662 627.869L267.338 627.131L255.338 616.131L254.662 616.869ZM248.557 605.231L254.557 616.731L255.443 616.269L249.443 604.769L248.557 605.231ZM245.508 588.087L248.508 605.087L249.492 604.913L246.492 587.913L245.508 588.087ZM245.5 560V588H246.5V560H245.5ZM249.013 544.886L245.513 559.886L246.487 560.114L249.987 545.114L249.013 544.886ZM254.549 533.284L249.049 544.784L249.951 545.216L255.451 533.716L254.549 533.284Z" fill="black" data-darkreader-inline-fill="" style="--darkreader-inline-fill:#d8d4cf;"></path><path fill-rule="evenodd" clip-rule="evenodd" d="M495.5 494L523.5 504.5L539.5 520.5L550 540.5L554.5 559V589L550 610L539.5 629.5L523.5 645L495.5 655.5H431.5V494H495.5ZM457.5 518.5H491L507 525.5L518 535.5L524.5 548.5L528.5 562V586L524.5 602L519 613L509 623L491 631H457.5V518.5Z" fill="black" data-darkreader-inline-fill="" style="--darkreader-inline-fill:#d8d4cf;"></path><path d="M523.5 504.5L523.854 504.146L523.777 504.07L523.676 504.032L523.5 504.5ZM495.5 494L495.676 493.532L495.591 493.5H495.5V494ZM539.5 520.5L539.943 520.268L539.907 520.2L539.854 520.146L539.5 520.5ZM550 540.5L550.486 540.382L550.471 540.322L550.443 540.268L550 540.5ZM554.5 559H555V558.94L554.986 558.882L554.5 559ZM554.5 589L554.989 589.105L555 589.053V589H554.5ZM550 610L550.44 610.237L550.474 610.174L550.489 610.105L550 610ZM539.5 629.5L539.848 629.859L539.904 629.805L539.94 629.737L539.5 629.5ZM523.5 645L523.676 645.468L523.773 645.432L523.848 645.359L523.5 645ZM495.5 655.5V656H495.591L495.676 655.968L495.5 655.5ZM431.5 655.5H431V656H431.5V655.5ZM431.5 494V493.5H431V494H431.5ZM491 518.5L491.2 518.042L491.105 518H491V518.5ZM457.5 518.5V518H457V518.5H457.5ZM507 525.5L507.336 525.13L507.276 525.075L507.2 525.042L507 525.5ZM518 535.5L518.447 535.276L518.405 535.193L518.336 535.13L518 535.5ZM524.5 548.5L524.979 548.358L524.967 548.316L524.947 548.276L524.5 548.5ZM528.5 562H529V561.927L528.979 561.858L528.5 562ZM528.5 586L528.985 586.121L529 586.062V586H528.5ZM524.5 602L524.947 602.224L524.972 602.175L524.985 602.121L524.5 602ZM519 613L519.354 613.354L519.411 613.296L519.447 613.224L519 613ZM509 623L509.203 623.457L509.288 623.419L509.354 623.354L509 623ZM491 631V631.5H491.106L491.203 631.457L491 631ZM457.5 631H457V631.5H457.5V631ZM523.676 504.032L495.676 493.532L495.324 494.468L523.324 504.968L523.676 504.032ZM539.854 520.146L523.854 504.146L523.146 504.854L539.146 520.854L539.854 520.146ZM550.443 540.268L539.943 520.268L539.057 520.732L549.557 540.732L550.443 540.268ZM554.986 558.882L550.486 540.382L549.514 540.618L554.014 559.118L554.986 558.882ZM555 589V559H554V589H555ZM550.489 610.105L554.989 589.105L554.011 588.895L549.511 609.895L550.489 610.105ZM539.94 629.737L550.44 610.237L549.56 609.763L539.06 629.263L539.94 629.737ZM523.848 645.359L539.848 629.859L539.152 629.141L523.152 644.641L523.848 645.359ZM495.676 655.968L523.676 645.468L523.324 644.532L495.324 655.032L495.676 655.968ZM431.5 656H495.5V655H431.5V656ZM431 494V655.5H432V494H431ZM495.5 493.5H431.5V494.5H495.5V493.5ZM491 518H457.5V519H491V518ZM507.2 525.042L491.2 518.042L490.8 518.958L506.8 525.958L507.2 525.042ZM518.336 535.13L507.336 525.13L506.664 525.87L517.664 535.87L518.336 535.13ZM524.947 548.276L518.447 535.276L517.553 535.724L524.053 548.724L524.947 548.276ZM528.979 561.858L524.979 548.358L524.021 548.642L528.021 562.142L528.979 561.858ZM529 586V562H528V586H529ZM524.985 602.121L528.985 586.121L528.015 585.879L524.015 601.879L524.985 602.121ZM519.447 613.224L524.947 602.224L524.053 601.776L518.553 612.776L519.447 613.224ZM509.354 623.354L519.354 613.354L518.646 612.646L508.646 622.646L509.354 623.354ZM491.203 631.457L509.203 623.457L508.797 622.543L490.797 630.543L491.203 631.457ZM457.5 631.5H491V630.5H457.5V631.5ZM457 518.5V631H458V518.5H457Z" fill="black" data-darkreader-inline-fill="" style="--darkreader-inline-fill:#d8d4cf;"></path><path d="M633 655.5V494H746V518.5H659.5V557H746V582H659.5V631H746V655.5H633Z" fill="black" stroke="black" data-darkreader-inline-fill="" style="--darkreader-inline-fill:#d8d4cf; --darkreader-inline-stroke:#d8d4cf;" data-darkreader-inline-stroke=""></path></svg>